<?xml version="1.0" standalone="no"?><!DOCTYPE svg PUBLIC "-//W3C//DTD SVG 1.1//EN" "http://www.w3.org/Graphics/SVG/1.1/DTD/svg11.dtd"><svg t="1482368985522" class="icon" style="" viewBox="0 0 1024 1024" version="1.1" xmlns="http://www.w3.org/2000/svg" p-id="1704" xmlns:xlink="http://www.w3.org/1999/xlink" width="200" height="200"><defs><style type="text/css"></style></defs><path d="M867.402085 959.337361c-16.468834 0-300.54643 0-459.694127 0-29.697865 24.104457-70.577948 41.764484-128.199681 41.764484-77.726102 0-149.890974-86.679032-149.890974-86.679032s171.706183 25.114972 171.706183-153.006861c0-88.538771-81.484553-138.52568-81.484553-364.001807 0-150.930269 127.312282-334.886547 275.585553-334.886547 175.463636 0 254.773663 254.348951 254.773663 346.495676 0 64.405733-24.071679 100.518049-36.174474 127.281903-12.095799 26.763854-18.969139 48.122173-24.959078 93.154641-4.796748 36.266411-1.768801 68.957047-1.223171 83.347291l0 0c52.765025 21.204623 120.438942 48.243091 150.685435 59.944158 39.507014 15.305623 55.851932 158.507132 55.851932 158.507132S890.34453 959.337361 867.402085 959.337361zM706.876322 372.298374c-23.828844-11.364695-70.026322-34.676889-101.981656-59.515449-48.121374-37.458003-87.045783-85.791034-87.045783-85.791034s-74.151525 15.642794-104.673831 69.23286c-29.330114 51.448918-50.625476 94.772944-50.625476 134.27716 0 97.248266 102.290447 135.011662 102.290447 161.960391 13.688719 0 21.020748 0 30.584264 0 81.511535 0 214.019295-48.366008 214.019295-183.438629C709.443581 397.047194 708.405285 384.704562 706.876322 372.298374zM803.576559 805.596997c-34.431655-10.20708-151.967566-56.034808-196.057673-70.456031-50.715415-16.619732-53.740364-73.783775-50.654456-108.032554-20.5011 4.002286-41.247035 6.110857-61.440144 6.110857-5.378353 0-10.877625-0.551626-16.344918-0.856419 2.258469 6.934299 4.275101 14.023492 5.924983 21.263583 24.045697 106.262754-10.509874 222.177763-39.686892 264.951763l402.161335 0C847.478594 918.578196 837.947056 815.801079 803.576559 805.596997z" p-id="1705" fill="#707070"></path></svg>